<svg width="480" height="360" xmlns="http://www.w3.org/2000/svg"><g fill-rule="nonzero" fill="none"><path fill="#64BE96" d="M-1.191-5h481.663v283.939H-1.191z"/><path d="M563.134 193.568l-359.499 2.728c16.346-7.881 160.789-64.934 219.005-70.784 36.747-3.684 81.894-3.684 83.104-3.684l.1.065c3.542-.089 35.814-.39 57.26-.59l.03 72.265z" fill="#008264"/><path d="M-14.78 124.195v60.731l229.631 1.334c-17.119-6.316-141.733-44.273-229.63-62.065z" fill="#281446"/><path d="M229.526 177.713c-34.126-8.335-166.916-28.11-237.812-37.75l-2.952 81.716 257.836-5.218 15.419-30.643c-7.025-1.8-27.095-6.789-32.49-8.105z" fill="#006482"/><path d="M489.345 153.103c-6.033.023-12.06.092-18.081.206a.897.897 0 00-.154-.082c-4.787-.024-103.369 2.455-112.223 3.813-43.093 3.92-185.104 20.608-217.683 28.364-32.58 7.757-107.808 51.694-132.843 62.249l480.984-3.194v-91.356z" fill="#00A0DC"/><path d="M401.076 126.078s4.262 0 2.019-9.203c-2.243-9.203-22.88-51.58-22.88-51.58l-11.216 5.117 6.735 50.052 25.342 5.614zM337.228 63.252s-22.798 55.642-16.711 66.191l10.324-5.838 10.773-35.242-4.386-25.111z" fill="#FAB414"/><path d="M363.904 221.03l67.473-15.047c0-3.696-44.616-126.427-46.912-129.278l-20.56 1.41V221.03z" fill="#8C8264"/><path d="M371.873 71.74l-37.986 8.454c-1.918 5.519-41.57 156.278-41.705 156.833l108.617-22.432L371.873 71.74z" fill="#AAA082"/><path d="M502.102 25.755c-.803-8.406-.19-16.812-2.822-24.893-3.571-1.18-8.005-1.323-11.753-1.11a93.794 93.794 0 01-14.339-.425c-4.51-.477-9.041-.728-13.577-.75-4.722 0-8.736 1.151-13.193 2.58-7.763 2.497-14.923 2.107-23.028 1.854-7.88-.26-14.699 3.783-20.413 8.79-4.67 4.096-10.702 9.899-17.538 6.493-2.916-1.447-4.894-4.133-7.952-5.455-3.187-1.31-6.794-2.792-10.289-1.9-3.376.838-6.812 3.193-8.506 6.274-1.623 2.952-1.287 5.827-1.435 9.044-.147 3.323-.702 7.084-4.22 8.388-2.952 1.08-6.228-.16-9.132-.732-7.958-1.57-13.908 2.108-14.693 10.183-.785 8.076 5.472 16.836 11.216 21.67l36.888.886c.46-4.723 1.257-12.704 6.446-14.687 2.46-.92 5.15-1.023 7.674-.295 2.674.862 3.613 2.745 5.089 5.03 2.644 4.084 5.944 9.686 11.381 10.076 7.155.513 7.084-5.124 9.404-9.923 2.32-4.8 8.382-5.112 12.744-3.094 5.006 2.326 7.916 6.647 14.038 6.01 5.992-.59 7.538-6.234 12.485-8.613 5.094-2.456 10.868-1.907 16.328-2.444 5.826.55 11.806 1.594 17.65 1.553 2.87 0 5.75-.36 8.607-.2 1.287.076 5.1.896 6.151 0-1.505-8.065-2.432-16.164-3.211-24.31z" fill="#AADCDC"/><path d="M333.072 126.096c-5.4-1.73-2.632-12.13-1.576-15.938 1.535-5.514 4.321-11.511.685-16.582l-2.774-1.004c-.048-2.745 1.21-5.513 1.835-8.146.59-2.361 1.063-4.776 1.588-7.16 1.01-4.634 1.771-9.84 3.985-14.02 7.727-.791 15.307.295 23.022.555 6.765.224 13.66.59 20.372 1.487 3.967 7.084 6.753 14.587 9.675 22.184.956 2.485 4.22 8.264 1.77 10.626-2.744 2.644-6.493-1.069-8.016-3.188-2.756-3.772-8.713-15.3-14.214-8.11-4.723 6.191 1.47 16.026-2.716 22.939-5.625 5.495-8.264-6.033-9.155-9.445-1.476-5.626-6.588-7.29-10.797-3.159-4.21 4.133-4.25 11.452-5.856 17.007-1.234 4.197-2.922 11.358-7.828 11.954z" fill="#FAB414"/><path d="M386.04 212.234c-.89-12.255-1.77-21.841-1.9-21.936-.98-.177-68.039-10.248-68.913-10.72a97.885 97.885 0 00-5.578-.513.142.142 0 000-.06c-1.11-.135-24.32-1.216-26.481-.543-10.378 1.447-44.864 8.79-53.081 13.129-3.902 2.054-10.26 11.056-16.588 20.66l172.542-.017z" fill="#005A5A"/><path d="M-16.55 240.203l359.498 2.727c-16.345-7.88-65.465-44.663-86.74-50.454-13.022-3.547-74.048-14.48-132.265-20.33-36.746-3.683-81.893-3.683-83.103-3.683l-.1.064c-3.543-.088-35.815-.39-57.26-.59l-.03 72.266z" fill="#008264"/><path d="M121.523 66.982c-5.03-2.231-10.82-1.924-16.18-2.255-2.822-.177-5.62-.242-8.448-.295-2.987-.059-5.62-.88-8.524-1.434-1.83-1.488-3.117-2.267-2.58-4.829.39-1.883 1.512-2.981 3.053-4.008 3.57-2.361 6.233-3.259 7.195-7.75.697-3.283 0-7.48-3.264-9.11-3.802-1.912-9.35-2.42-13.524-2.538-8.595-.242-17.154-1.015-25.773-.667-4.54.19-9.073.136-13.613.272-4.539.136-9.444 1.127-13.925.136-1.966-4.457-1.77-7.403.632-11.706 1.741-3.14 3.016-6.287-.974-8.212-3.69-1.77-8.796-1.6-12.804-1.682-.667 0-12.957-.03-27.573-.041v75.996c51.947-.448 123.965-1.021 131.284-2.314 4.806-.85 9.056-2.816 10.626-7.774 1.399-4.57-1.352-9.906-5.608-11.789z" fill="#AADCDC"/><path d="M261.438 190.611c-5.312 1.806-39.94 15.549-41.864 16.782 0 0 115.393 2.692 117.513-1.953-8.826-5.083-47.22-24.463-75.649-14.829z" fill="#00A0B4"/><path d="M317.848 202.494s11.594-18.37 18.76-21.623c7.167-3.253 10.484-1.582 12.397-1.435 8.506.644 21.841 20.33 22.668 21.883-2.302 2.025-53.825 1.175-53.825 1.175z" fill="#F0E6D2"/><path d="M506.464 164.419c-.992-.065-68.771-2.113-69.698-2.473-1.865 0-3.73.035-5.596.147a.277.277 0 00-.035-.053c-1.122 0-24.292 1.676-26.364 2.597-10.13 2.669-43.494 14.05-51.15 19.333-7.656 5.283-25.336 42.75-31.215 49.946l192.322 4.292c4.457-.213-7.892-73.553-8.264-73.79z" fill="#005A5A"/><path d="M144.504 219.908C118.837 197.577 26.643 186.166-2.973 184.49c-12.137-.684-23.707-.903-34.238-.85v36.27h181.715z" fill="#281446"/><path d="M-6.167 192.382c-2.951 1.806-22.26 39.161-23.329 40.395 0 0 64.303 2.692 65.483-1.954-4.917-5.083-26.31-48.075-42.154-38.441z" fill="#00A0B4"/><path d="M501.151 185.735c-1.51-.03-2.444-.047-2.662-.065-5.189 0-10.378 0-15.549.083l-.1-.036c-3.123 0-67.502.903-73.252 1.4-28.146 1.434-120.842 7.544-142.117 10.383-21.274 2.84-70.394 33.89-86.74 37.756l320.42-1.18v-48.341z" fill="#281446"/><path d="M391 192.364c-23.147 2.397-28.884 46.824-28.884 46.824l58.753-3.483c-1.523-1.848-6.723-45.732-29.87-43.34z" fill="#00A08C"/><path d="M448.242 197.181c6.971-.714 4.9 10.927-1.972 9.345-6.322-1.452-3.636-9.492 1.972-9.345z" fill="#008264"/><path d="M145.23 194.525c5.986 2.603 1.63 7.562-2.491 9.392-4.93 2.184-10.75 1.416-15.903.549-1.807-.302-5.313-1.01-4.988-3.477.324-2.468 3.66-3.46 5.602-4.186 5.295-1.971 12.19-4.315 17.78-2.278z" fill="#F0E6D2"/><path d="M484.623 200.8c-9.026.537-22.355 1.47-22.379 1.452-3.914 0-7.603.826-11.487.891-4.192.071-8.385-.07-12.562-.425-8.211-.69-48.854-5.667-60.519-6.092-10.814-.39-21.587-.195-32.396-.23-11.092-.035-21.995.702-33.057 1.287-5.62.295-11.246.59-16.836 1.28-2.615.331-58.476.202-59.792.125-5.225-.29-44.894-.921-50.814-.697-10.915.408-21.936.325-32.786 1.293-10.756.956-21.576 1.234-32.337 2.214-5.23.478-10.555.785-15.809.844-1.77 0-19.48.443-41.776 1.05 0-.112 0-.218-.035-.324-4.091.271-8.1.378-12.202.313 0 .118-.047.23-.071.348-18.158.508-37.868 1.098-53.996 1.665-1.7-.18-3.417-.119-5.1.183l-6.63.254v177.783h500.584V200.8z" fill="#DCD2B4"/><path d="M-111 254.736s252.653-10.035 299.287 3.542c46.635 13.577-202.476 37.78-202.476 37.78L-111 254.736z" fill="#AAA082"/><path d="M123.353 325.91c-12.237 1.93-73.027 4.421-83.824 3.867 3.695-7.013 25.224-14.758 38.606-16.53a61.764 61.764 0 0122.527 1.11c4.356 1.045 23.281 8.767 22.691 11.553z" fill="#008264"/><path d="M62.876 272.446c2.314-9.498 25-102.803 25.058-113.517.042-7.774-.673-22.656-9.852-24.486-15.732-3.129-38.37 119.113-41.77 138.003h26.564z" fill="#E6781E"/><path d="M37.953 272.446c-6.098-30.696-18.27-85.217-27.35-83.417-6.758 1.364-7.284 12.343-7.254 18.081 0 5.638 8.536 42.22 14.05 65.336h20.554z" fill="#FFC800"/><path d="M47.203 263.373c-8.477-.237-15.437-.284-19.935-13.548-3.955-11.653-7.898-25.135-10.206-38.589-2.58-15.052-12.397-65.447-.531-79.16 5.678-6.582 12.467 3.943 15.1 10.968 4.055 10.82 6.682 24.138 8.335 37.337 3.311 26.505 5.95 55.312 7.237 82.992z" fill="#A0AA1E"/><path d="M53.449 272.446c1.18-26.098 5.75-128.405 4.037-140.494-1.352-9.54-5.673-25.484-15.005-25.383-14.298.135-15.118 122.312-15.301 165.877h26.269z" fill="#FFDC00"/><path d="M41.347 272.446c-.69-16.104-1.517-30.413-2.361-33.589-1.47-5.508-4.84-15.885-11.694-15.077-5.856.691-6.919 23.873-6.358 48.666h20.413z" fill="#F00A78"/><path d="M-23.782 372.692h512.755c1.582-44.71 3.86-110.435 3.324-113.823-3.743 0-49.917-8.572-54.102-8.926-8.211-.69-48.854-5.667-60.519-6.092-10.814-.39-21.587-.195-32.396-.23-11.092-.036-21.995.702-33.057 1.287-5.62.295-11.246.59-16.836 1.28-2.615.331-5.2.927-7.78 1.447-2.362.478-321.53 21.841-338.395 28.925l29.515 44.864-2.509 51.268z" fill="#DCD2B4"/><path d="M328.28 356.429c-.178-.449-.29-.72-.444-1.116l-5.732-.218c-7.514-3.996.55-10.035 6.494-13.276 8.223-4.44 18.158-5.183 30.159-5.803 11.558-.59 23.063-.183 30.548 4.339 7.674 4.616 9.977 10.566 3.902 15.773-2.166-.213-4.132.455-6.222 0-9.303.903-19.15.401-28.588.496-10.03.13-20.089-.06-30.118-.195z" fill="#00A08C"/><path d="M245.547 344.463c-37.19 15.939 278.626 5.904 278.626 5.904l.59-17.12c-69.656-5.312-242.026-4.722-279.216 11.216z" fill="#AAA082"/><path d="M428.041 343.932c-32.59-.992-65.453-2.993-97.932-2.845-32.184.142-64.497-1.092-96.705-.91-15.649.095-31.575-.17-47.224-.926-5.313-.254-203.026-7.727-223.964-8.47v52.053h521.226v-35.685c-25.797-1.653-48.405-3.004-55.4-3.217z" fill="#DCD2B4"/><path fill="#AAA082" d="M486.984 333.838l4.132 31.286H292.772z"/><path d="M362.966 331.359c-7.255-5.19 0-10.573 6.01-11.842 7.207-1.511 14.757 1.18 21.404 3.802 2.326.92 6.776 2.857 5.667 6.068-1.11 3.211-5.903 3.577-8.678 3.996-7.633 1.14-17.52 2.303-24.403-2.024z" fill="#F0E6D2"/><path d="M459.64 345.674c3.944-23.105 7.143-43.683 6.913-48.47-.401-8.265-2.019-24.068-12.007-25.012-8.536-.809-21.357 37.898-28.152 73.328l33.247.154z" fill="#64BE96"/><path d="M474.398 375.78c3.944-23.105 7.143-43.684 6.913-48.471-.401-8.264-2.019-24.067-12.007-25.011-8.536-.81-21.357 37.898-28.152 73.328l33.246.153z" fill="#00A0B4"/><path d="M444.358 361.228c1.77-7.119 18.748-77.082 18.795-85.117 0-5.826-.508-16.989-7.39-18.358-11.807-2.361-28.766 89.302-31.322 103.475h19.917z" fill="#FAB414"/><path d="M427.534 369.788c-4.581-23.022-20.78-83.641-27.574-82.29-5.082 1.016-5.478 9.257-5.454 13.578.024 4.32 11.015 51.25 15.147 68.582l17.88.13z" fill="#008264"/><path d="M454.293 361.228c3.447-14.87 6.859-30.342 6.87-33.429 0-4.303-.371-12.544-5.454-13.577-5.425-1.074-12.337 24.793-17.237 46.989l15.82.017z" fill="#281446"/><path d="M432.599 354.428c-6.358-.177-11.576-.213-14.953-10.16-2.951-8.736-5.903-18.848-7.674-28.925-1.936-11.286-9.274-49.072-.401-59.355 4.262-4.935 9.35 2.951 11.322 8.223 3.04 8.117 5.012 18.099 6.251 27.998 2.52 19.864 4.498 41.464 5.455 62.219z" fill="#FFDC00"/><path d="M437.292 361.228c.897-19.569 4.309-96.28 3.028-105.335-1.01-7.154-3.542-20.702-10.531-20.66-10.72.1-12.054 93.304-12.196 125.972l19.699.023zM408.473 378.005c-5.815-27.237-12.61-57.963-14.758-63.193-2.745-6.682-8.536-19.19-15.3-17.396-6.996 1.853.637 43.789 8.777 80.589h21.28z" fill="#E6781E"/><path d="M428.543 370.437c-.52-12.072 1.877-62.077-9.604-61.262-11.482.814-7.344 41.48-6.924 60.081l16.528 1.181z" fill="#FFC800"/><path d="M393.886 378.005h19.616a848.416 848.416 0 00-2.733-24.687c-1.24-9.894-3.211-19.882-6.251-27.992-1.972-5.272-7.084-13.164-11.323-8.23-8.854 10.284-1.534 48.07.402 59.362.118.514.195 1.027.29 1.547z" fill="#F00A78"/><path d="M54.287 361.771c-5.862-3.11-23.087-12.142-27.343-13.099-5.042-1.133-10.248-2.638-15.437-2.78-9.982-.266-22.526 4.404-22.632 15.88h65.412z" fill="#F0E6D2"/><path d="M58.938 371.948c2.952-18.689 26.281-23.494 41.77-23.895 7.633-.201 17.533-.32 23.826 4.722 6.162 4.959 7.083 12.627 2.101 18.672a570.186 570.186 0 01-67.697.501z" fill="#8C8264"/><path d="M64.174 349.08a4.45 4.45 0 01-.53 3.542c-4.263.554-8.631.123-12.781.147a2.308 2.308 0 01-1.594-1.907c1.93-6.263 11.328-6.87 14.905-1.782z" fill="#F0E6D2"/><path d="M463.177 204.04c.3 1.583.348 3.029-.691 4.629-5.537.714-11.216.159-16.623.188a3.016 3.016 0 01-2.078-2.485c2.515-8.158 14.746-8.955 19.392-2.331z" fill="#AAA082"/></g></svg>