<?xml version="1.0" encoding="utf-8"?>
<!-- Generator: Adobe Illustrator 26.0.1, SVG Export Plug-In . SVG Version: 6.00 Build 0)  -->
<svg version="1.1" id="图层_1" xmlns="http://www.w3.org/2000/svg" xmlns:xlink="http://www.w3.org/1999/xlink" x="0px" y="0px"
	 viewBox="0 0 144.5 99.5" style="enable-background:new 0 0 144.5 99.5;" xml:space="preserve">
<path d="M76.9,34.3H36c-8.5,0-15.4,6.8-15.4,15.4c0,8.5,6.9,15.4,15.4,15.4h40.9v20.6H36c-19.9,0-36-16.1-36-36s16.1-36,36-36h40.9
	V34.3z"/>
<path d="M104.7,25c0,4.7-2.8,8.5-6.7,10.3v12.3c2.6-1.6,5.8-2.4,9-2.4h13.5c4.9,0,9-4.1,9-9v-1c-4-1.9-6.7-5.8-6.7-10.3
	c0-6.2,5-11.3,11.3-11.3c6.2,0,11.3,5,11.3,11.3c0,4.7-2.8,8.5-6.7,10.3v1c0,9.9-8,18-18,18h-13.5c-4.9,0-9,4.1-9,9v1
	c4,1.7,6.7,5.8,6.7,10.3c0,6.2-5,11.3-11.3,11.3c-6.2,0-11.3-5-11.3-11.3c0-4.7,2.8-8.6,6.7-10.3V35.3c-4-1.9-6.7-5.8-6.7-10.3
	c0-6.2,5-11.3,11.3-11.3C99.6,13.7,104.7,18.7,104.7,25L104.7,25z M93.4,28.3c1.9,0,3.4-1.6,3.4-3.4c0-1.9-1.6-3.4-3.4-3.4
	c-1.9,0-3.4,1.6-3.4,3.4S91.5,28.3,93.4,28.3z M133.9,21.6c-1.9,0-3.4,1.6-3.4,3.4c0,1.9,1.6,3.4,3.4,3.4c1.9,0,3.4-1.6,3.4-3.4
	C137.3,23,135.8,21.6,133.9,21.6z M93.4,77.8c1.9,0,3.4-1.6,3.4-3.4c0-1.9-1.6-3.4-3.4-3.4c-1.9,0-3.4,1.6-3.4,3.4
	C90.1,76.4,91.5,77.8,93.4,77.8z"/>
</svg>
