<svg xmlns="http://www.w3.org/2000/svg" viewBox="0 0 32 31.22"><path d="M16 0a16 16 0 00-5.1 31.2c.8.1 1.1-.3 1.1-.8v-3c-4 .7-5.1-1-5.4-1.9A6.85 6.85 0 005 23.2c-.6-.3-1.4-1 0-1.1a3.44 3.44 0 012.5 1.6c1.4 2.4 3.7 1.7 4.7 1.3a3.45 3.45 0 011-2.1 9.72 9.72 0 01-6.2-4c-2.2-3.5 1.3-7.7 1.1-7.5l-.7-5.3a.22.22 0 01.2-.2l3.7 2.4a12.17 12.17 0 012.8-.6 8.48 8.48 0 012.3.1l2.7-2.5c.1-.1.2 0 .3.1l.8 3.3a10.87 10.87 0 012.6 2.5 6.73 6.73 0 011 3.1s2.2.6 2.6 2.4-1 5.1-6.8 6.2c-.2 0-.4.1-.6.1a3.72 3.72 0 011 2.9v4.4c0 .4.3.9 1.1.8A15.8 15.8 0 0032 16 16 16 0 0016 0z" fill="#24292e" fill-rule="evenodd"/></svg>