<?xml version="1.0" encoding="utf-8"?>
<!-- Generator: Adobe Illustrator 26.0.1, SVG Export Plug-In . SVG Version: 6.00 Build 0)  -->
<svg version="1.1" id="图层_1" xmlns="http://www.w3.org/2000/svg" xmlns:xlink="http://www.w3.org/1999/xlink" x="0px" y="0px"
	 viewBox="0 0 229.4 229.4" style="enable-background:new 0 0 229.4 229.4;" xml:space="preserve">
<style type="text/css">
	.st0{fill:#9FA0A0;}
	.st1{fill:#FFFFFF;}
</style>
<path class="st0" d="M0,114.7C0,51.4,51.4,0,114.7,0s114.7,51.4,114.7,114.7s-51.4,114.7-114.7,114.7S0,178.1,0,114.7z"/>
<path class="st1" d="M118.5,100.8H81.6c-7.7,0-13.9,6.1-13.9,13.9c0,7.7,6.2,13.9,13.9,13.9h36.9v18.6H81.6
	c-18,0-32.5-14.5-32.5-32.5s14.5-32.5,32.5-32.5h36.9L118.5,100.8z"/>
<path class="st1" d="M143.6,92.4c0,4.2-2.5,7.7-6,9.3v11.1c2.3-1.4,5.2-2.2,8.1-2.2h12.2c4.4,0,8.1-3.7,8.1-8.1v-0.9
	c-3.6-1.7-6-5.2-6-9.3c0-5.6,4.5-10.2,10.2-10.2c5.6,0,10.2,4.5,10.2,10.2c0,4.2-2.5,7.7-6,9.3v0.9c0,8.9-7.2,16.3-16.3,16.3h-12.2
	c-4.4,0-8.1,3.7-8.1,8.1v0.9c3.6,1.5,6,5.2,6,9.3c0,5.6-4.5,10.2-10.2,10.2c-5.6,0-10.2-4.5-10.2-10.2c0-4.2,2.5-7.8,6-9.3v-26.1
	c-3.6-1.7-6-5.2-6-9.3c0-5.6,4.5-10.2,10.2-10.2C139,82.2,143.6,86.7,143.6,92.4L143.6,92.4z M133.4,95.4c1.7,0,3.1-1.4,3.1-3.1
	c0-1.7-1.4-3.1-3.1-3.1c-1.7,0-3.1,1.4-3.1,3.1C130.3,94,131.7,95.4,133.4,95.4z M170,89.4c-1.7,0-3.1,1.4-3.1,3.1
	c0,1.7,1.4,3.1,3.1,3.1c1.7,0,3.1-1.4,3.1-3.1C173,90.6,171.7,89.4,170,89.4z M133.4,140.1c1.7,0,3.1-1.4,3.1-3.1
	c0-1.7-1.4-3.1-3.1-3.1c-1.7,0-3.1,1.4-3.1,3.1C130.4,138.8,131.7,140.1,133.4,140.1z"/>
</svg>
