<?xml version="1.0" encoding="utf-8"?>
<!-- Generator: Adobe Illustrator 26.0.1, SVG Export Plug-In . SVG Version: 6.00 Build 0)  -->
<svg version="1.1" id="图层_1" xmlns="http://www.w3.org/2000/svg" xmlns:xlink="http://www.w3.org/1999/xlink" x="0px" y="0px"
	 viewBox="0 0 120 90" style="enable-background:new 0 0 120 90;" xml:space="preserve">
<style type="text/css">
	.st0{fill:#888888;}
	.st1{fill:#BBBBBB;}
</style>
<g>
	<rect class="st0" width="120" height="90"/>
</g>
<path class="st1" d="M61.8,39.4h-14c-2.9,0-5.3,2.3-5.3,5.3c0,2.9,2.4,5.3,5.3,5.3h14v7h-14c-6.8,0-12.3-5.5-12.3-12.3
	S41,32.3,47.8,32.3h14L61.8,39.4z"/>
<path class="st1" d="M71.3,36.2c0,1.6-1,2.9-2.3,3.5v4.2c0.9-0.5,2-0.8,3.1-0.8h4.6c1.7,0,3.1-1.4,3.1-3.1v-0.3
	c-1.4-0.7-2.3-2-2.3-3.5c0-2.1,1.7-3.9,3.9-3.9c2.1,0,3.9,1.7,3.9,3.9c0,1.6-1,2.9-2.3,3.5V40c0,3.4-2.7,6.2-6.2,6.2h-4.6
	c-1.7,0-3.1,1.4-3.1,3.1v0.3c1.4,0.6,2.3,2,2.3,3.5c0,2.1-1.7,3.9-3.9,3.9c-2.1,0-3.9-1.7-3.9-3.9c0-1.6,1-2.9,2.3-3.5v-9.9
	c-1.4-0.7-2.3-2-2.3-3.5c0-2.1,1.7-3.9,3.9-3.9C69.6,32.3,71.3,34,71.3,36.2L71.3,36.2z M67.4,37.3c0.7,0,1.2-0.5,1.2-1.2
	c0-0.7-0.5-1.2-1.2-1.2c-0.7,0-1.2,0.5-1.2,1.2C66.3,36.8,66.8,37.3,67.4,37.3z M81.3,35c-0.7,0-1.2,0.5-1.2,1.2
	c0,0.7,0.5,1.2,1.2,1.2c0.7,0,1.2-0.5,1.2-1.2C82.5,35.5,82,35,81.3,35z M67.4,54.3c0.7,0,1.2-0.5,1.2-1.2c0-0.7-0.5-1.2-1.2-1.2
	c-0.7,0-1.2,0.5-1.2,1.2C66.3,53.8,66.8,54.3,67.4,54.3z"/>
</svg>
