<?xml version="1.0" encoding="utf-8"?>
<!-- Generator: Adobe Illustrator 26.0.1, SVG Export Plug-In . SVG Version: 6.00 Build 0)  -->
<svg version="1.1" id="图层_1" xmlns="http://www.w3.org/2000/svg" xmlns:xlink="http://www.w3.org/1999/xlink" x="0px" y="0px"
	 viewBox="0 0 640 360" style="enable-background:new 0 0 640 360;" xml:space="preserve">
<style type="text/css">
	.st0{fill:#CDE7F1;}
	.st1{fill:#2851E3;}
	.st2{font-family:'Roboto'; font-weight: bold;}
	.st3{font-size:71.974px;}
</style>
<g id="XMLID_00000034790931572864380720000016182148212994068357_">
	<g>
		<rect class="st0" width="640" height="360"/>
	</g>
	<g>
	</g>
</g>
<g>
	<g>
		<path class="st1" d="M144.3,160.5h-38.6c-8,0-14.6,6.3-14.6,14.6c0,8,6.6,14.6,14.6,14.6h38.6v19.3h-38.6c-18.8,0-34-15.2-34-34
			s15.2-34.2,34-34.2h38.6V160.5z"/>
		<path class="st1" d="M170.6,151.7c0,4.4-2.8,8-6.3,9.7v11.6c2.5-1.4,5.5-2.2,8.6-2.2h12.7c4.7,0,8.6-3.9,8.6-8.6v-0.8
			c-3.9-1.9-6.3-5.5-6.3-9.7c0-5.8,4.7-10.8,10.8-10.8c5.8,0,10.8,4.7,10.8,10.8c0,4.4-2.8,8-6.3,9.7v0.8c0,9.4-7.5,17.1-17.1,17.1
			H173c-4.7,0-8.6,3.9-8.6,8.6v0.8c3.9,1.7,6.3,5.5,6.3,9.7c0,5.8-4.7,10.8-10.8,10.8c-5.8,0-10.8-4.7-10.8-10.8
			c0-4.4,2.8-8,6.3-9.7v-27.3c-3.9-1.9-6.3-5.5-6.3-9.7c0-5.8,4.7-10.8,10.8-10.8C165.9,140.9,170.6,145.6,170.6,151.7L170.6,151.7z
			 M159.8,154.7c1.9,0,3.3-1.4,3.3-3.3c0-1.9-1.4-3.3-3.3-3.3s-3.3,1.4-3.3,3.3C156.8,153.3,158.1,154.7,159.8,154.7z M198.2,148.4
			c-1.9,0-3.3,1.4-3.3,3.3c0,1.9,1.4,3.3,3.3,3.3c1.9,0,3.3-1.4,3.3-3.3C201.5,149.7,200.1,148.4,198.2,148.4z M159.8,201.6
			c1.9,0,3.3-1.4,3.3-3.3c0-1.9-1.4-3.3-3.3-3.3s-3.3,1.4-3.3,3.3C156.8,200.3,158.1,201.6,159.8,201.6z"/>
	</g>
	<text transform="matrix(1 0 0 1 227.9977 201.0332)" class="st1 st2 st3">GitScratch</text>
</g>
</svg>
