<svg version="1.1" xmlns="http://www.w3.org/2000/svg" xmlns:xlink="http://www.w3.org/1999/xlink" width="229.44444" height="229.44444" viewBox="0,0,229.44444,229.44444"><g transform="translate(-125.27778,-65.27778)"><g data-paper-data="{&quot;isPaintingLayer&quot;:true}" fill-rule="nonzero" stroke="none" stroke-linecap="butt" stroke-linejoin="miter" stroke-miterlimit="10" stroke-dasharray="" stroke-dashoffset="0" style="mix-blend-mode: normal"><path d="M125.27778,180c0,-63.35933 51.36289,-114.72222 114.72222,-114.72222c63.35933,0 114.72222,51.36289 114.72222,114.72222c0,63.35933 -51.36289,114.72222 -114.72222,114.72222c-63.35933,0 -114.72222,-51.36289 -114.72222,-114.72222z" fill="#2851e3" stroke-width="0"/><path d="M243.79192,166.0963h-36.92605c-7.67412,0 -13.9037,6.1393 -13.9037,13.9037c0,7.67412 6.22958,13.9037 13.9037,13.9037h36.92605v18.59845h-36.92605c-17.96647,0 -32.50215,-14.53568 -32.50215,-32.50215c0,-17.96647 14.53568,-32.50215 32.50215,-32.50215h36.92605z" fill="#ffffff" stroke-width="1"/><path d="M268.8908,157.69991c0,4.24334 -2.52795,7.67412 -6.04901,9.29923v11.1049c2.34738,-1.44454 5.23646,-2.16681 8.12554,-2.16681h12.18831c4.4239,0 8.12554,-3.70163 8.12554,-8.12554v-0.90284c-3.61135,-1.71539 -6.04901,-5.23646 -6.04901,-9.29923c0,-5.59759 4.51419,-10.20206 10.20206,-10.20206c5.59759,0 10.20206,4.51419 10.20206,10.20206c0,4.24334 -2.52795,7.67412 -6.04901,9.29923v0.90284c0,8.93809 -7.2227,16.25108 -16.25108,16.25108h-12.18831c-4.4239,0 -8.12554,3.70163 -8.12554,8.12554v0.90284c3.61135,1.53482 6.04901,5.23646 6.04901,9.29923c0,5.59759 -4.51419,10.20206 -10.20206,10.20206c-5.59759,0 -10.20206,-4.51419 -10.20206,-10.20206c0,-4.24334 2.52795,-7.7644 6.04901,-9.29923v-26.092c-3.61135,-1.71539 -6.04901,-5.23646 -6.04901,-9.29923c0,-5.59759 4.51419,-10.20206 10.20206,-10.20206c5.41703,0 10.0215,4.51419 10.0215,10.20206zM258.68874,160.67928c1.71539,0 3.06965,-1.44454 3.06965,-3.06965c0,-1.71539 -1.44454,-3.06965 -3.06965,-3.06965c-1.71539,0 -3.06965,1.44454 -3.06965,3.06965c0,1.62511 1.35426,3.06965 3.06965,3.06965zM295.25366,154.63027c-1.71539,0 -3.06965,1.44454 -3.06965,3.06965c0,1.71539 1.44454,3.06965 3.06965,3.06965c1.71539,0 3.06965,-1.44454 3.06965,-3.06965c0,-1.80568 -1.35426,-3.06965 -3.06965,-3.06965zM258.68874,205.36973c1.71539,0 3.06965,-1.44454 3.06965,-3.06965c0,-1.71539 -1.44454,-3.06965 -3.06965,-3.06965c-1.71539,0 -3.06965,1.44454 -3.06965,3.06965c0.09028,1.80568 1.35426,3.06965 3.06965,3.06965z" fill="#ffffff" stroke-width="1"/></g></g></svg>