<svg version="1.1" id="prefix__图层_1" xmlns="http://www.w3.org/2000/svg" x="0" y="0" viewBox="0 0 144.5 99.5" xml:space="preserve"><style>.prefix__st0{fill:#fff}</style><path class="prefix__st0" d="M76.9 34.3H36c-8.5 0-15.4 6.8-15.4 15.4 0 8.5 6.9 15.4 15.4 15.4h40.9v20.6H36c-19.9 0-36-16.1-36-36s16.1-36 36-36h40.9v20.6zM104.7 25c0 4.7-2.8 8.5-6.7 10.3v12.3c2.6-1.6 5.8-2.4 9-2.4h13.5c4.9 0 9-4.1 9-9v-1c-4-1.9-6.7-5.8-6.7-10.3 0-6.2 5-11.3 11.3-11.3 6.2 0 11.3 5 11.3 11.3 0 4.7-2.8 8.5-6.7 10.3v1c0 9.9-8 18-18 18h-13.5c-4.9 0-9 4.1-9 9v1c4 1.7 6.7 5.8 6.7 10.3 0 6.2-5 11.3-11.3 11.3-6.2 0-11.3-5-11.3-11.3 0-4.7 2.8-8.6 6.7-10.3V35.3c-4-1.9-6.7-5.8-6.7-10.3 0-6.2 5-11.3 11.3-11.3 6 0 11.1 5 11.1 11.3zm-11.3 3.3c1.9 0 3.4-1.6 3.4-3.4 0-1.9-1.6-3.4-3.4-3.4-1.9 0-3.4 1.6-3.4 3.4s1.5 3.4 3.4 3.4zm40.5-6.7c-1.9 0-3.4 1.6-3.4 3.4 0 1.9 1.6 3.4 3.4 3.4 1.9 0 3.4-1.6 3.4-3.4 0-2-1.5-3.4-3.4-3.4zM93.4 77.8c1.9 0 3.4-1.6 3.4-3.4 0-1.9-1.6-3.4-3.4-3.4-1.9 0-3.4 1.6-3.4 3.4.1 2 1.5 3.4 3.4 3.4z"/></svg>