<svg version="1.1" id="prefix__图层_1" xmlns="http://www.w3.org/2000/svg" x="0" y="0" viewBox="0 0 120 90" xml:space="preserve"><style>.prefix__st1{fill:#bbb}</style><path fill="#888" d="M0 0h120v90H0z"/><path class="prefix__st1" d="M61.8 39.4h-14c-2.9 0-5.3 2.3-5.3 5.3 0 2.9 2.4 5.3 5.3 5.3h14v7h-14c-6.8 0-12.3-5.5-12.3-12.3S41 32.3 47.8 32.3h14v7.1zM71.3 36.2c0 1.6-1 2.9-2.3 3.5v4.2c.9-.5 2-.8 3.1-.8h4.6c1.7 0 3.1-1.4 3.1-3.1v-.3c-1.4-.7-2.3-2-2.3-3.5 0-2.1 1.7-3.9 3.9-3.9 2.1 0 3.9 1.7 3.9 3.9 0 1.6-1 2.9-2.3 3.5v.3c0 3.4-2.7 6.2-6.2 6.2h-4.6c-1.7 0-3.1 1.4-3.1 3.1v.3c1.4.6 2.3 2 2.3 3.5 0 2.1-1.7 3.9-3.9 3.9-2.1 0-3.9-1.7-3.9-3.9 0-1.6 1-2.9 2.3-3.5v-9.9c-1.4-.7-2.3-2-2.3-3.5 0-2.1 1.7-3.9 3.9-3.9 2.1 0 3.8 1.7 3.8 3.9zm-3.9 1.1c.7 0 1.2-.5 1.2-1.2s-.5-1.2-1.2-1.2-1.2.5-1.2 1.2c.1.7.6 1.2 1.2 1.2zM81.3 35c-.7 0-1.2.5-1.2 1.2s.5 1.2 1.2 1.2 1.2-.5 1.2-1.2S82 35 81.3 35zM67.4 54.3c.7 0 1.2-.5 1.2-1.2s-.5-1.2-1.2-1.2-1.2.5-1.2 1.2c.1.7.6 1.2 1.2 1.2z"/></svg>