<svg xmlns="http://www.w3.org/2000/svg" width="229.444" height="229.444"><g data-paper-data="{&quot;isPaintingLayer&quot;:true}" stroke-miterlimit="10" style="mix-blend-mode:normal"><path d="M0 114.722C0 51.362 51.363 0 114.722 0c63.36 0 114.722 51.363 114.722 114.722 0 63.36-51.362 114.722-114.722 114.722C51.362 229.444 0 178.082 0 114.722z" fill="#2851e3"/><path d="M118.514 100.819H81.588a13.852 13.852 0 00-13.904 13.903c0 7.674 6.23 13.904 13.904 13.904h36.926v18.598H81.588c-17.966 0-32.502-14.535-32.502-32.502 0-17.966 14.536-32.502 32.502-32.502h36.926zM143.613 92.422c0 4.243-2.528 7.674-6.049 9.3v11.104c2.347-1.444 5.236-2.167 8.126-2.167h12.188c4.424 0 8.125-3.701 8.125-8.125v-.903c-3.61-1.715-6.049-5.236-6.049-9.3 0-5.597 4.515-10.201 10.202-10.201 5.598 0 10.203 4.514 10.203 10.202 0 4.243-2.528 7.674-6.05 9.3v.902c0 8.938-7.222 16.251-16.25 16.251H145.87c-4.424 0-8.125 3.702-8.125 8.126v.902c3.61 1.535 6.049 5.237 6.049 9.3 0 5.597-4.515 10.202-10.202 10.202-5.598 0-10.203-4.515-10.203-10.202a10.09 10.09 0 016.05-9.3v-26.092c-3.612-1.715-6.05-5.236-6.05-9.299 0-5.597 4.515-10.202 10.203-10.202 5.417 0 10.021 4.514 10.021 10.202zm-10.202 2.98c1.715 0 3.07-1.445 3.07-3.07 0-1.716-1.445-3.07-3.07-3.07-1.715 0-3.07 1.445-3.07 3.07 0 1.625 1.355 3.07 3.07 3.07zm36.565-6.05c-1.716 0-3.07 1.445-3.07 3.07 0 1.716 1.445 3.07 3.07 3.07 1.715 0 3.07-1.445 3.07-3.07 0-1.806-1.355-3.07-3.07-3.07zm-36.565 50.74c1.715 0 3.07-1.445 3.07-3.07 0-1.715-1.445-3.07-3.07-3.07-1.715 0-3.07 1.445-3.07 3.07.09 1.806 1.355 3.07 3.07 3.07z" fill="#fff"/></g></svg>