<svg xmlns="http://www.w3.org/2000/svg" viewBox="0 0 320 180"><style>.prefix__st1{fill:#2962ff}</style><path fill="#90caf9" d="M0 0h320v180H0z"/><path class="prefix__st1" d="M80.52 79.31c-2.4 0-4.57-.53-6.5-1.58-1.93-1.06-3.46-2.6-4.59-4.64-1.13-2.04-1.69-4.54-1.69-7.49 0-2.21.33-4.17.99-5.88.66-1.72 1.58-3.17 2.75-4.37 1.18-1.2 2.53-2.11 4.07-2.74 1.54-.62 3.19-.94 4.97-.94 1.92 0 3.56.35 4.91 1.06 1.36.71 2.47 1.49 3.33 2.36l-2.84 3.38c-.67-.62-1.41-1.15-2.21-1.58-.8-.43-1.81-.65-3.01-.65-1.49 0-2.8.37-3.92 1.1s-2 1.78-2.63 3.15c-.62 1.37-.94 3.01-.94 4.93 0 1.94.29 3.61.88 4.98.59 1.38 1.47 2.44 2.65 3.19 1.18.74 2.63 1.12 4.35 1.12.65 0 1.27-.09 1.87-.27.6-.18 1.08-.43 1.44-.74v-5.25h-4.7v-4.36h9.5v12.02c-.91.89-2.12 1.64-3.64 2.27-1.51.62-3.19.93-5.04.93zM97.12 55.37c-.94 0-1.68-.26-2.23-.77-.55-.52-.83-1.22-.83-2.11 0-.86.28-1.56.83-2.09.55-.53 1.3-.79 2.23-.79.89 0 1.62.26 2.2.79.58.53.86 1.22.86 2.09 0 .89-.29 1.59-.86 2.11-.58.52-1.32.77-2.2.77zm-2.67 23.44V58.65h5.29v20.16h-5.29zM112.77 79.31c-1.58 0-2.87-.32-3.85-.95a5.357 5.357 0 01-2.12-2.65c-.43-1.13-.65-2.44-.65-3.92v-8.96h-2.84V58.9l3.13-.25.61-5.44h4.36v5.44h5v4.18h-5v8.93c0 1.15.24 2 .72 2.56.48.55 1.16.83 2.05.83.34 0 .68-.05 1.04-.14.36-.1.67-.19.94-.29l.9 3.85c-.55.17-1.18.34-1.89.5-.71.16-1.51.24-2.4.24zM128.94 79.31c-1.78 0-3.52-.34-5.22-1.01s-3.2-1.63-4.5-2.88l3.06-3.67c.94.89 2.01 1.6 3.22 2.14 1.21.54 2.39.81 3.55.81 1.39 0 2.45-.28 3.17-.83.72-.55 1.08-1.3 1.08-2.23 0-.67-.17-1.21-.52-1.6-.35-.4-.82-.75-1.42-1.06-.6-.31-1.3-.62-2.09-.94l-3.53-1.55c-.89-.36-1.75-.85-2.57-1.46-.83-.61-1.51-1.39-2.05-2.32-.54-.94-.81-2.05-.81-3.35 0-1.46.4-2.77 1.19-3.92s1.88-2.07 3.28-2.75c1.39-.68 2.98-1.03 4.75-1.03 1.58 0 3.11.3 4.57.9 1.46.6 2.74 1.45 3.81 2.56l-2.7 3.31c-.84-.7-1.72-1.24-2.63-1.62-.91-.38-1.93-.58-3.06-.58-1.15 0-2.07.25-2.75.74-.68.49-1.03 1.18-1.03 2.07 0 .62.19 1.14.58 1.55.38.41.89.76 1.51 1.06.62.3 1.31.61 2.05.92l3.49 1.4c1.08.43 2.02.97 2.83 1.62.8.65 1.43 1.43 1.87 2.34.44.91.67 2.02.67 3.31 0 1.44-.39 2.77-1.17 4s-1.9 2.21-3.35 2.95c-1.46.75-3.22 1.12-5.28 1.12zM151.58 79.31c-1.85 0-3.52-.42-5-1.26s-2.66-2.05-3.53-3.62-1.3-3.47-1.3-5.71c0-2.23.47-4.13 1.42-5.71.95-1.57 2.21-2.78 3.78-3.62 1.57-.84 3.27-1.26 5.09-1.26 1.25 0 2.35.21 3.31.63.96.42 1.81.97 2.56 1.64l-2.52 3.35c-.48-.43-.97-.76-1.48-.97-.5-.22-1.03-.32-1.58-.32-1.03 0-1.94.26-2.72.77-.78.52-1.38 1.24-1.8 2.18-.42.94-.63 2.04-.63 3.31s.21 2.38.63 3.31c.42.94 1.01 1.66 1.76 2.18.76.52 1.61.77 2.57.77.72 0 1.42-.16 2.09-.47.67-.31 1.28-.7 1.84-1.15l2.09 3.49c-.96.84-2.02 1.46-3.19 1.85-1.16.41-2.29.61-3.39.61zM161.98 78.81V58.65h4.32l.4 3.56h.11c.74-1.32 1.62-2.33 2.63-3.02 1.01-.7 2.04-1.04 3.1-1.04.58 0 1.04.04 1.39.13.35.08.67.19.95.31l-.88 4.56c-.38-.1-.73-.17-1.03-.23-.3-.06-.68-.09-1.13-.09-.77 0-1.58.3-2.43.9-.85.6-1.57 1.62-2.14 3.06v12.02h-5.29zM182.64 79.31c-1.18 0-2.21-.26-3.11-.77s-1.6-1.23-2.09-2.14c-.49-.91-.74-1.94-.74-3.1 0-2.14.92-3.8 2.77-4.99 1.85-1.19 4.79-2 8.82-2.43-.02-.67-.14-1.27-.36-1.78a2.66 2.66 0 00-1.06-1.24c-.49-.31-1.16-.47-2-.47-.94 0-1.86.18-2.77.54-.91.36-1.84.83-2.77 1.4l-1.87-3.53c.79-.5 1.63-.95 2.52-1.33.89-.38 1.82-.7 2.81-.95s2-.38 3.06-.38c1.7 0 3.13.34 4.28 1.01 1.15.67 2.02 1.67 2.59 2.99.58 1.32.86 2.95.86 4.9v11.77h-4.32l-.36-2.16h-.18c-.86.77-1.8 1.4-2.81 1.91s-2.1.75-3.27.75zm1.76-4.14c.74 0 1.42-.17 2.03-.52.61-.35 1.23-.83 1.85-1.46v-4.03c-1.63.19-2.93.47-3.89.83s-1.64.79-2.05 1.28c-.41.49-.61 1.04-.61 1.64 0 .79.25 1.37.74 1.73.5.35 1.14.53 1.93.53zM206.36 79.31c-1.58 0-2.87-.32-3.85-.95a5.357 5.357 0 01-2.12-2.65c-.43-1.13-.65-2.44-.65-3.92v-8.96h-2.84V58.9l3.13-.25.61-5.44H205v5.44h5v4.18h-5v8.93c0 1.15.24 2 .72 2.56.48.55 1.16.83 2.05.83.34 0 .68-.05 1.04-.14.36-.1.67-.19.94-.29l.9 3.85c-.55.17-1.18.34-1.89.5-.72.16-1.52.24-2.4.24zM222.7 79.31c-1.85 0-3.52-.42-5-1.26s-2.66-2.05-3.53-3.62-1.3-3.47-1.3-5.71c0-2.23.47-4.13 1.42-5.71.95-1.57 2.21-2.78 3.78-3.62 1.57-.84 3.27-1.26 5.09-1.26 1.25 0 2.35.21 3.31.63.96.42 1.81.97 2.56 1.64l-2.52 3.35c-.48-.43-.97-.76-1.48-.97-.5-.22-1.03-.32-1.58-.32-1.03 0-1.94.26-2.72.77-.78.52-1.38 1.24-1.8 2.18-.42.94-.63 2.04-.63 3.31s.21 2.38.63 3.31c.42.94 1.01 1.66 1.76 2.18.76.52 1.61.77 2.57.77.72 0 1.42-.16 2.09-.47.67-.31 1.28-.7 1.84-1.15l2.09 3.49c-.96.84-2.02 1.46-3.19 1.85-1.15.41-2.29.61-3.39.61zM233.1 78.81V50.08h5.29v7.23l-.25 3.78a13.7 13.7 0 012.74-2.05c1.03-.6 2.23-.9 3.6-.9 2.18 0 3.77.71 4.75 2.14.98 1.43 1.48 3.41 1.48 5.96V78.8h-5.29V66.89c0-1.56-.22-2.65-.67-3.28-.44-.62-1.17-.94-2.18-.94-.82 0-1.53.19-2.14.58-.61.38-1.29.95-2.03 1.69V78.8h-5.3z"/><path fill="#fff" d="M81.5 110h157v23h-157z"/><g><path class="prefix__st1" d="M129.21 125.98c-.54 0-1.05-.1-1.51-.31s-.86-.5-1.2-.9c-.34-.4-.6-.87-.79-1.43-.19-.56-.28-1.2-.28-1.91 0-.7.1-1.34.29-1.9.19-.56.46-1.04.8-1.43s.75-.7 1.22-.91c.47-.21.98-.31 1.54-.31.54 0 1 .11 1.4.33.4.22.73.47.98.74l-.55.65c-.22-.26-.49-.46-.79-.61s-.65-.23-1.03-.23c-.57 0-1.07.15-1.5.44-.43.3-.76.72-1 1.26-.23.54-.35 1.19-.35 1.94 0 .76.11 1.42.34 1.97.23.55.55.98.97 1.28.42.3.92.45 1.49.45.42 0 .8-.09 1.14-.26s.65-.42.94-.74l.55.62c-.34.4-.73.71-1.16.93-.42.22-.92.33-1.5.33zM135.95 125.98a2.8 2.8 0 01-1.47-.4c-.45-.27-.82-.65-1.09-1.16-.28-.5-.41-1.11-.41-1.82 0-.73.14-1.35.41-1.85.28-.51.64-.9 1.09-1.16.45-.27.94-.4 1.47-.4.4 0 .78.08 1.13.23.36.15.67.37.95.67s.5.65.65 1.07c.16.42.23.91.23 1.45 0 .71-.14 1.32-.41 1.82-.28.5-.64.89-1.09 1.16s-.94.39-1.46.39zm0-.81c.39 0 .74-.11 1.03-.32.3-.22.53-.52.7-.9.17-.38.25-.83.25-1.34 0-.52-.08-.97-.25-1.36s-.4-.69-.7-.91c-.3-.22-.64-.32-1.03-.32-.38 0-.73.11-1.03.32-.3.22-.53.52-.7.91-.16.39-.25.84-.25 1.36 0 .51.08.96.25 1.34.16.38.4.68.7.9.3.21.64.32 1.03.32zM140.69 125.83v-6.48h.8l.1.96h.04c.28-.31.59-.58.94-.8s.71-.33 1.09-.33c.5 0 .89.11 1.17.34.28.22.48.53.61.92.35-.38.7-.68 1.05-.91.35-.23.72-.35 1.11-.35.66 0 1.15.21 1.47.64.32.43.49 1.06.49 1.89v4.12h-.96v-4c0-.62-.1-1.08-.31-1.37-.21-.29-.53-.43-.96-.43-.26 0-.53.09-.81.26-.28.18-.57.44-.89.78v4.75h-.97v-4c0-.62-.1-1.08-.31-1.37-.2-.29-.52-.43-.95-.43-.26 0-.53.09-.82.26-.29.18-.58.44-.89.78v4.75h-1zM152.23 117.95c-.2 0-.36-.06-.49-.19s-.19-.29-.19-.5c0-.2.06-.36.19-.48.12-.12.29-.18.49-.18.19 0 .35.06.48.18s.19.28.19.48a.648.648 0 01-.67.69zm-.5 7.88v-6.48h.98v6.48h-.98zM154.95 125.83v-6.48h.8l.1.95h.04c.31-.31.64-.58.99-.79.35-.22.75-.32 1.19-.32.68 0 1.18.21 1.5.64.32.43.48 1.06.48 1.89v4.12h-.98v-4c0-.62-.1-1.08-.3-1.37-.2-.29-.53-.43-.98-.43-.34 0-.65.09-.93.26-.28.18-.58.44-.92.78v4.75h-.99zM164.39 128.84c-.53 0-.99-.07-1.4-.2-.4-.14-.72-.33-.94-.59-.22-.26-.34-.57-.34-.94 0-.28.08-.55.25-.82s.4-.49.71-.68v-.05c-.16-.1-.3-.24-.41-.42-.11-.18-.17-.39-.17-.65 0-.27.08-.51.23-.71.16-.2.32-.36.49-.47v-.05c-.22-.18-.41-.42-.59-.72s-.26-.65-.26-1.03c0-.47.11-.88.32-1.23.22-.35.51-.62.88-.8.37-.19.76-.28 1.19-.28.19 0 .36.02.52.05.15.03.28.07.4.12h2.24v.76h-1.37c.17.16.3.36.41.61.1.24.16.51.16.81 0 .45-.1.84-.31 1.18-.21.34-.49.6-.85.79-.36.19-.75.28-1.19.28-.15 0-.32-.02-.49-.07-.18-.04-.34-.1-.49-.17-.12.1-.22.22-.31.34-.09.12-.13.28-.13.47 0 .21.08.38.25.52.16.14.47.21.92.21h1.31c.74 0 1.29.12 1.66.37s.56.63.56 1.16c0 .39-.13.76-.4 1.1-.26.34-.64.62-1.12.82s-1.08.29-1.73.29zm.13-.69a3 3 0 001.13-.2c.32-.14.57-.31.74-.52s.26-.43.26-.67c0-.32-.12-.54-.35-.67-.23-.13-.57-.19-1.01-.19h-1.19c-.1 0-.23-.01-.38-.02s-.3-.04-.45-.08c-.25.17-.43.35-.53.56-.11.2-.16.41-.16.61 0 .35.17.64.51.86.35.21.82.32 1.43.32zm-.17-5.06c.27 0 .52-.07.73-.2.22-.13.39-.32.53-.56.14-.24.2-.52.2-.84 0-.34-.07-.62-.2-.86s-.31-.42-.53-.54c-.22-.12-.47-.19-.74-.19-.26 0-.5.06-.72.19s-.39.3-.52.54-.2.52-.2.86c0 .32.07.6.2.84s.31.43.53.56c.23.13.46.2.72.2zM173.25 125.98c-.46 0-.91-.09-1.33-.26s-.78-.38-1.07-.63l.48-.66c.28.22.57.41.88.56.31.15.67.22 1.07.22.45 0 .78-.11 1.01-.32.22-.21.34-.47.34-.76a.8.8 0 00-.23-.58c-.15-.16-.34-.29-.58-.4a6.22 6.22 0 00-.71-.29c-.3-.12-.6-.25-.89-.4s-.54-.33-.73-.57c-.2-.24-.29-.54-.29-.91 0-.34.09-.64.26-.92s.43-.49.76-.65c.33-.16.72-.24 1.19-.24.38 0 .75.07 1.09.21.34.14.63.31.88.51l-.48.64c-.22-.17-.44-.31-.68-.41s-.51-.16-.8-.16c-.43 0-.75.1-.95.29-.2.2-.31.43-.31.69 0 .22.07.39.2.53s.31.26.53.35c.22.1.45.19.69.28.24.1.48.19.71.29.24.1.45.22.65.37s.35.32.47.53.17.47.17.79c0 .34-.09.66-.27.95s-.44.52-.78.69-.77.26-1.28.26zM185.15 118.95c.39 0 .77.09 1.15.26.37.18.68.44.92.79s.37.79.37 1.32-.12.97-.37 1.32c-.24.35-.55.62-.92.79-.37.18-.75.26-1.15.26-.46 0-.87-.08-1.25-.24a3.87 3.87 0 01-1.04-.65c-.31-.27-.59-.57-.84-.89-.25.32-.53.62-.84.89-.31.27-.66.49-1.04.65-.38.16-.8.24-1.27.24-.38 0-.76-.09-1.14-.26-.38-.18-.69-.44-.93-.79-.24-.35-.37-.79-.37-1.32s.12-.97.37-1.32.55-.62.93-.79c.38-.18.76-.26 1.14-.26.46 0 .89.08 1.27.25s.73.38 1.04.64c.31.26.59.56.84.89.25-.33.53-.62.84-.89.31-.26.66-.48 1.04-.64s.79-.25 1.25-.25zm-6.29 4c.56 0 1.06-.15 1.49-.45.44-.3.83-.69 1.18-1.17-.35-.47-.75-.86-1.18-1.16-.44-.3-.93-.46-1.49-.46-.28 0-.55.06-.8.19s-.46.31-.62.55c-.16.24-.24.54-.24.89 0 .34.08.64.24.88.16.24.37.43.62.55s.52.18.8.18zm6.3 0c.29 0 .56-.06.81-.19s.46-.31.62-.55c.16-.24.24-.54.24-.88 0-.35-.08-.65-.24-.89-.16-.24-.37-.42-.62-.55s-.52-.19-.81-.19c-.55 0-1.05.15-1.49.46-.44.3-.83.69-1.18 1.16.34.48.74.87 1.18 1.17.44.31.94.46 1.49.46zM189.14 125.83v-6.48h.8l.1.95h.04c.31-.31.64-.58.99-.79.35-.22.75-.32 1.19-.32.68 0 1.18.21 1.5.64.32.43.48 1.06.48 1.89v4.12h-.98v-4c0-.62-.1-1.08-.3-1.37-.2-.29-.53-.43-.98-.43-.34 0-.65.09-.93.26-.28.18-.58.44-.92.78v4.75h-.99z"/></g><g><linearGradient id="prefix__linearGradient0" gradientUnits="userSpaceOnUse" x1="77" y1="121.5" x2="82" y2="121.5"><stop offset="0" stop-color="#90caf9"/><stop offset="1" stop-color="#fff"/></linearGradient><path fill="url(#prefix__linearGradient0)" d="M77 110h5v23h-5z"/></g><g><linearGradient id="prefix__linearGradient1" gradientUnits="userSpaceOnUse" x1="238" y1="121.5" x2="243" y2="121.5"><stop offset="0" stop-color="#fff"/><stop offset="1" stop-color="#90caf9"/></linearGradient><path fill="url(#prefix__linearGradient1)" d="M238 110h5v23h-5z"/></g></svg>