<?xml version="1.0" encoding="utf-8"?>
<!-- Generator: Adobe Illustrator 26.0.1, SVG Export Plug-In . SVG Version: 6.00 Build 0)  -->
<svg version="1.1" xmlns="http://www.w3.org/2000/svg" xmlns:xlink="http://www.w3.org/1999/xlink" x="0px" y="0px"
	 viewBox="0 0 32 32" style="enable-background:new 0 0 32 32;" xml:space="preserve">
<style type="text/css">
	.st0{fill-rule:evenodd;clip-rule:evenodd;fill:#24292E;}
</style>
<path class="st0" d="M7.5,10.9"/>
<path class="st0" d="M16,0C7.2,0,0,7.2,0,16c0,7.1,4.6,13.1,10.9,15.2c0.8,0.1,1.1-0.3,1.1-0.8c0-0.4,0-1.6,0-3
	c-4,0.7-5.1-1-5.4-1.9c-0.2-0.5-1-1.9-1.6-2.3c-0.6-0.3-1.4-1,0-1.1c1.3,0,2.2,1.2,2.5,1.6c1.4,2.4,3.7,1.7,4.7,1.3
	c0.1-1,0.6-1.7,1-2.1c-2.7-0.6-4.9-2-6.2-4c-2.2-3.5,1.3-7.7,1.1-7.5L7.4,6.1c0-0.1,0.1-0.2,0.2-0.2l3.7,2.4c0,0,1.4-0.5,2.8-0.6
	c0.9-0.1,1.6,0,2.3,0.1l2.7-2.5c0.1-0.1,0.2,0,0.3,0.1l0.8,3.3c0,0,2,1.4,2.6,2.5c1,1.7,1,3.1,1,3.1s2.2,0.6,2.6,2.4
	c0.4,1.8-1,5.1-6.8,6.2c-0.2,0-0.4,0.1-0.6,0.1c0.6,0.5,1,1.5,1,2.9c0,2.1,0,3.9,0,4.4c0,0.4,0.3,0.9,1.1,0.8
	C27.4,29.1,32,23.1,32,16C32,7.2,24.8,0,16,0z"/>
</svg>
